<?xml version="1.0" encoding="iso-8859-1"?>
<!-- Generator: Adobe Illustrator 19.0.0, SVG Export Plug-In . SVG Version: 6.00 Build 0)  -->
<svg xmlns="http://www.w3.org/2000/svg" xmlns:xlink="http://www.w3.org/1999/xlink" version="1.1" id="Layer_1" x="0px" y="0px" viewBox="0 0 512 512" style="enable-background:new 0 0 512 512;" xml:space="preserve" width="512" height="512">
<g>
	<polygon style="fill:#FF7149;" points="0,60 0,512 120,512 256,60  "/>
	<polygon style="fill:#FF2B59;" points="512,60 256,60 392,512 512,512  "/>
	<rect x="45" y="120" style="fill:#FFFFFF;" width="30" height="30"/>
	<rect x="45" y="180" style="fill:#FFFFFF;" width="30" height="30"/>
	<rect x="45" y="240" style="fill:#FFFFFF;" width="30" height="30"/>
	<rect x="45" y="300" style="fill:#FFFFFF;" width="30" height="30"/>
	<rect x="437" y="120" style="fill:#FFEAC3;" width="30" height="30"/>
	<rect x="437" y="180" style="fill:#FFEAC3;" width="30" height="30"/>
	<rect x="437" y="240" style="fill:#FFEAC3;" width="30" height="30"/>
	<rect x="437" y="300" style="fill:#FFEAC3;" width="30" height="30"/>
	<rect x="45" y="360" style="fill:#FFFFFF;" width="30" height="30"/>
	<rect x="437" y="360" style="fill:#FFEAC3;" width="30" height="30"/>
	<polygon style="fill:#FF7149;" points="392,0 256,0 196,256 332,512 392,512  "/>
	<polygon style="fill:#FF9441;" points="120,0 120,512 180,512 256,452 256,0  "/>
	<polygon style="fill:#BFDCFF;" points="332,60 256,60 226,104.5 256,149 332,149  "/>
	<rect x="180" y="60" style="fill:#FFFFFF;" width="76" height="89"/>
	<polygon style="fill:#BFDCFF;" points="332,180 256,180 226,224.5 256,269 332,269  "/>
	<rect x="180" y="180" style="fill:#FFFFFF;" width="76" height="89"/>
	<polygon style="fill:#FFEAC3;" points="332,374 332,299 256,299 226,404  "/>
	<polygon style="fill:#FFFFFF;" points="256,299 180,299 180,374 256,404  "/>
	<polygon style="fill:#09213D;" points="256,374 216,443 256,512 332,512 332,374  "/>
	<rect x="180" y="374" style="fill:#233952;" width="76" height="138"/>
</g>















</svg>
